#define falconHeavy16x11_width 16
#define falconHeavy16x11_height 11
static unsigned char falconHeavy16x11_bits[] = {
   0x00, 0x82, 0x44, 0x88, 0x00, 0x62, 0x00, 0x18, 0x00, 0x44, 0x00, 0x03,
   0x00, 0x01, 0x40, 0x00, 0x78, 0x00, 0x08, 0x00, 0x00, 0x00 };
